<svg width="64" height="72" viewBox="0 0 64 72" fill="none" xmlns="http://www.w3.org/2000/svg" aria-hidden="true"><defs><linearGradient id="h" x1="32" y1="2" x2="32" y2="70" gradientUnits="userSpaceOnUse"><stop stop-color="#FBBF24"/><stop offset="1" stop-color="#F59E0B"/></linearGradient></defs><path d="M32 2 6 12v22c0 17 12 28 26 34 14-6 26-17 26-34V12L32 2Z" fill="url(#h)"/><path d="M32 9 12 16.5V34c0 13.5 9.2 22.7 20 27.8 10.8-5.1 20-14.3 20-27.8V16.5L32 9Z" fill="#0F1117"/><path d="M32 22l10 10-10 10-10-10 10-10Z" fill="url(#h)"/><path d="M22 40l10-6 10 6" stroke="#0F1117" stroke-width="2.5" fill="none" stroke-linecap="round" stroke-linejoin="round"/></svg>
